<svg width="43" height="43" viewBox="0 0 43 43" fill="none" xmlns="http://www.w3.org/2000/svg">
<path d="M21.5 10.7499C20.5146 10.7499 19.671 10.3991 18.9693 9.69731C18.2675 8.99558 17.9167 8.152 17.9167 7.16659C17.9167 6.18117 18.2675 5.33759 18.9693 4.63586C19.671 3.93412 20.5146 3.58325 21.5 3.58325C22.4854 3.58325 23.329 3.93412 24.0307 4.63586C24.7325 5.33759 25.0833 6.18117 25.0833 7.16659C25.0833 8.152 24.7325 8.99558 24.0307 9.69731C23.329 10.3991 22.4854 10.7499 21.5 10.7499ZM16.125 39.4166V16.1249H5.375V12.5416H37.625V16.1249H26.875V39.4166H23.2917V28.6666H19.7083V39.4166H16.125Z" fill="#1D1B20"/>
</svg>
