<svg width="40" height="40" viewBox="0 0 40 40" fill="none" xmlns="http://www.w3.org/2000/svg">
<path d="M20.8333 38.3332C16.8889 38.3332 13.5417 36.9582 10.7917 34.2082C8.04166 31.4582 6.66666 28.1109 6.66666 24.1665V8.33317C6.66666 7.86095 6.82639 7.46512 7.14583 7.14567C7.46528 6.82623 7.86111 6.6665 8.33333 6.6665C8.80555 6.6665 9.20139 6.82623 9.52083 7.14567C9.84028 7.46512 10 7.86095 10 8.33317V18.3332H13.3333V4.99984C13.3333 4.52762 13.4931 4.13178 13.8125 3.81234C14.1319 3.49289 14.5278 3.33317 15 3.33317C15.4722 3.33317 15.8681 3.49289 16.1875 3.81234C16.5069 4.13178 16.6667 4.52762 16.6667 4.99984V18.3332H20V3.33317C20 2.86095 20.1597 2.46512 20.4792 2.14567C20.7986 1.82623 21.1944 1.6665 21.6667 1.6665C22.1389 1.6665 22.5347 1.82623 22.8542 2.14567C23.1736 2.46512 23.3333 2.86095 23.3333 3.33317V18.3332H26.6667V6.6665C26.6667 6.19428 26.8264 5.79845 27.1458 5.479C27.4653 5.15956 27.8611 4.99984 28.3333 4.99984C28.8056 4.99984 29.2014 5.15956 29.5208 5.479C29.8403 5.79845 30 6.19428 30 6.6665V16.2498C29.1944 16.8332 28.5764 17.5693 28.1458 18.4582C27.7153 19.3471 27.5 20.2776 27.5 21.2498V23.3332H25.4167C23.6667 23.3332 22.1875 23.9373 20.9792 25.1457C19.7708 26.354 19.1667 27.8332 19.1667 29.5832V31.6665H21.6667V29.5832C21.6667 28.5276 22.0278 27.6387 22.75 26.9165C23.4722 26.1943 24.3611 25.8332 25.4167 25.8332H30V21.2498C30 20.1943 30.3611 19.3054 31.0833 18.5832C31.8056 17.861 32.6944 17.4998 33.75 17.4998H35V24.1665C35 28.1109 33.625 31.4582 30.875 34.2082C28.125 36.9582 24.7778 38.3332 20.8333 38.3332Z" fill="#FFE7F0"/>
</svg>
