<svg width="40" height="43" viewBox="0 0 40 43" fill="none" xmlns="http://www.w3.org/2000/svg">
<path d="M34.7333 8.25944C33.8821 7.3439 32.8714 6.61764 31.7589 6.12213C30.6465 5.62662 29.4541 5.37158 28.25 5.37158C27.0459 5.37158 25.8535 5.62662 24.7411 6.12213C23.6286 6.61764 22.6179 7.3439 21.7667 8.25944L20 10.1586L18.2333 8.25944C16.5138 6.41099 14.1817 5.37254 11.75 5.37254C9.31827 5.37254 6.98615 6.41099 5.26666 8.25944C3.54717 10.1079 2.58118 12.6149 2.58118 15.229C2.58118 17.8431 3.54717 20.3502 5.26666 22.1986L20 38.0369L34.7333 22.1986C35.585 21.2835 36.2606 20.197 36.7215 19.0011C37.1825 17.8052 37.4197 16.5235 37.4197 15.229C37.4197 13.9346 37.1825 12.6528 36.7215 11.4569C36.2606 10.2611 35.585 9.17454 34.7333 8.25944Z" stroke="#FFE7F0" stroke-width="4" stroke-linecap="round" stroke-linejoin="round"/>
</svg>
