<svg width="40" height="40" viewBox="0 0 40 40" fill="none" xmlns="http://www.w3.org/2000/svg">
<path d="M6.66668 31.6666C5.75001 31.6666 4.96529 31.3402 4.31251 30.6874C3.65973 30.0346 3.33334 29.2499 3.33334 28.3333V11.6666C3.33334 10.7499 3.65973 9.9652 4.31251 9.31242C4.96529 8.65964 5.75001 8.33325 6.66668 8.33325H33.3333C34.25 8.33325 35.0347 8.65964 35.6875 9.31242C36.3403 9.9652 36.6667 10.7499 36.6667 11.6666V28.3333C36.6667 29.2499 36.3403 30.0346 35.6875 30.6874C35.0347 31.3402 34.25 31.6666 33.3333 31.6666H6.66668ZM6.66668 28.3333H33.3333V11.6666H6.66668V28.3333ZM13.3333 26.6666H26.6667V23.3333H13.3333V26.6666ZM8.33334 21.6666H11.6667V18.3333H8.33334V21.6666ZM13.3333 21.6666H16.6667V18.3333H13.3333V21.6666ZM18.3333 21.6666H21.6667V18.3333H18.3333V21.6666ZM23.3333 21.6666H26.6667V18.3333H23.3333V21.6666ZM28.3333 21.6666H31.6667V18.3333H28.3333V21.6666ZM8.33334 16.6666H11.6667V13.3333H8.33334V16.6666ZM13.3333 16.6666H16.6667V13.3333H13.3333V16.6666ZM18.3333 16.6666H21.6667V13.3333H18.3333V16.6666ZM23.3333 16.6666H26.6667V13.3333H23.3333V16.6666ZM28.3333 16.6666H31.6667V13.3333H28.3333V16.6666Z" fill="#1D1B20"/>
</svg>
