<svg width="40" height="43" viewBox="0 0 40 43" fill="none" xmlns="http://www.w3.org/2000/svg">
<path d="M20 21.4998C18.1667 21.4998 16.5972 20.7981 15.2917 19.3946C13.9861 17.9912 13.3333 16.304 13.3333 14.3332C13.3333 12.3623 13.9861 10.6752 15.2917 9.27171C16.5972 7.86824 18.1667 7.1665 20 7.1665C21.8333 7.1665 23.4028 7.86824 24.7083 9.27171C26.0139 10.6752 26.6667 12.3623 26.6667 14.3332C26.6667 16.304 26.0139 17.9912 24.7083 19.3946C23.4028 20.7981 21.8333 21.4998 20 21.4998ZM6.66666 35.8332V30.8165C6.66666 29.8012 6.90971 28.8681 7.39582 28.017C7.88193 27.166 8.52777 26.5165 9.33332 26.0686C11.0555 25.1429 12.8055 24.4486 14.5833 23.9858C16.3611 23.5229 18.1667 23.2915 20 23.2915C21.8333 23.2915 23.6389 23.5229 25.4167 23.9858C27.1944 24.4486 28.9444 25.1429 30.6667 26.0686C31.4722 26.5165 32.118 27.166 32.6042 28.017C33.0903 28.8681 33.3333 29.8012 33.3333 30.8165V35.8332H6.66666ZM9.99999 32.2498H30V30.8165C30 30.488 29.9236 30.1894 29.7708 29.9207C29.618 29.6519 29.4167 29.4429 29.1667 29.2936C27.6667 28.4873 26.1528 27.8827 24.625 27.4795C23.0972 27.0764 21.5555 26.8748 20 26.8748C18.4444 26.8748 16.9028 27.0764 15.375 27.4795C13.8472 27.8827 12.3333 28.4873 10.8333 29.2936C10.5833 29.4429 10.3819 29.6519 10.2292 29.9207C10.0764 30.1894 9.99999 30.488 9.99999 30.8165V32.2498ZM20 17.9165C20.9167 17.9165 21.7014 17.5656 22.3542 16.8639C23.0069 16.1622 23.3333 15.3186 23.3333 14.3332C23.3333 13.3478 23.0069 12.5042 22.3542 11.8024C21.7014 11.1007 20.9167 10.7498 20 10.7498C19.0833 10.7498 18.2986 11.1007 17.6458 11.8024C16.993 12.5042 16.6667 13.3478 16.6667 14.3332C16.6667 15.3186 16.993 16.1622 17.6458 16.8639C18.2986 17.5656 19.0833 17.9165 20 17.9165Z" fill="#FFE7F0"/>
</svg>
