<svg width="60" height="60" viewBox="0 0 60 60" fill="none" xmlns="http://www.w3.org/2000/svg">
<path d="M14.625 42.75C16.75 41.125 19.125 39.8438 21.75 38.9062C24.375 37.9688 27.125 37.5 30 37.5C32.875 37.5 35.625 37.9688 38.25 38.9062C40.875 39.8438 43.25 41.125 45.375 42.75C46.8333 41.0417 47.9688 39.1042 48.7812 36.9375C49.5938 34.7708 50 32.4583 50 30C50 24.4583 48.0521 19.7396 44.1562 15.8438C40.2604 11.9479 35.5417 10 30 10C24.4583 10 19.7396 11.9479 15.8438 15.8438C11.9479 19.7396 10 24.4583 10 30C10 32.4583 10.4062 34.7708 11.2188 36.9375C12.0312 39.1042 13.1667 41.0417 14.625 42.75ZM30 32.5C27.5417 32.5 25.4688 31.6562 23.7812 29.9688C22.0938 28.2812 21.25 26.2083 21.25 23.75C21.25 21.2917 22.0938 19.2188 23.7812 17.5313C25.4688 15.8438 27.5417 15 30 15C32.4583 15 34.5312 15.8438 36.2188 17.5313C37.9062 19.2188 38.75 21.2917 38.75 23.75C38.75 26.2083 37.9062 28.2812 36.2188 29.9688C34.5312 31.6562 32.4583 32.5 30 32.5ZM30 55C26.5417 55 23.2917 54.3438 20.25 53.0312C17.2083 51.7188 14.5625 49.9375 12.3125 47.6875C10.0625 45.4375 8.28125 42.7917 6.96875 39.75C5.65625 36.7083 5 33.4583 5 30C5 26.5417 5.65625 23.2917 6.96875 20.25C8.28125 17.2083 10.0625 14.5625 12.3125 12.3125C14.5625 10.0625 17.2083 8.28125 20.25 6.96875C23.2917 5.65625 26.5417 5 30 5C33.4583 5 36.7083 5.65625 39.75 6.96875C42.7917 8.28125 45.4375 10.0625 47.6875 12.3125C49.9375 14.5625 51.7188 17.2083 53.0312 20.25C54.3438 23.2917 55 26.5417 55 30C55 33.4583 54.3438 36.7083 53.0312 39.75C51.7188 42.7917 49.9375 45.4375 47.6875 47.6875C45.4375 49.9375 42.7917 51.7188 39.75 53.0312C36.7083 54.3438 33.4583 55 30 55Z" fill="white"/>
</svg>
