<svg width="40" height="40" viewBox="0 0 40 40" fill="none" xmlns="http://www.w3.org/2000/svg">
<path d="M19.9996 0C8.95422 0 0 8.98729 0 20.0735C0 29.4871 6.45747 37.3864 15.1685 39.556V26.2079H11.0446V20.0735H15.1685V17.4302C15.1685 10.598 18.2492 7.4312 24.9323 7.4312C26.1995 7.4312 28.3858 7.68091 29.2802 7.92982V13.4902C28.8082 13.4404 27.9882 13.4155 26.9699 13.4155C23.6907 13.4155 22.4235 14.6625 22.4235 17.9039V20.0735H28.9562L27.8338 26.2079H22.4235V40C32.3265 38.7996 40 30.3366 40 20.0735C39.9992 8.98729 31.045 0 19.9996 0Z" fill="white"/>
</svg>
