<svg width="20" height="20" viewBox="0 0 20 20" fill="none" xmlns="http://www.w3.org/2000/svg">
<path fill-rule="evenodd" clip-rule="evenodd" d="M1.07273 14.4818C0.390899 13.1364 0 11.6182 0 10C0 8.3818 0.390899 6.86363 1.07273 5.51816C2.71816 2.24547 6.0909 0 10 0C12.7 0 14.9545 0.990898 16.6909 2.6091L13.8272 5.47273C12.7818 4.4909 11.4727 3.9818 10 3.9818C7.4 3.9818 5.1909 5.73637 4.4 8.1C4.2 8.7 4.0818 9.33633 4.0818 10C4.0818 10.6636 4.2 11.3 4.4 11.9L4.38816 11.9091H4.4C5.1909 14.2727 7.4 16.0273 10 16.0273C11.3454 16.0273 12.4818 15.6636 13.3727 15.0636C14.4364 14.3545 15.1454 13.3 15.3818 12.0545H10V8.1818H19.4182C19.5363 8.83637 19.6 9.51816 19.6 10.2273C19.6 13.2727 18.5091 15.8363 16.6182 17.5818C14.9636 19.1091 12.7 20 10 20C6.0909 20 2.71816 17.7545 1.07273 14.4909V14.4818Z" fill="black" fill-opacity="0.85"/>
</svg>
