<svg width="38" height="15" viewBox="0 0 38 15" fill="none" xmlns="http://www.w3.org/2000/svg">
<path d="M18.6667 0C21.9444 0 25.1736 0.659722 28.3542 1.97917C31.5347 3.29861 34.3611 5.27778 36.8333 7.91667C37.1667 8.25 37.3333 8.63889 37.3333 9.08333C37.3333 9.52778 37.1667 9.91667 36.8333 10.25L33 14C32.6944 14.3056 32.3403 14.4722 31.9375 14.5C31.5347 14.5278 31.1667 14.4167 30.8333 14.1667L26 10.5C25.7778 10.3333 25.6111 10.1389 25.5 9.91667C25.3889 9.69445 25.3333 9.44444 25.3333 9.16667V4.41667C24.2778 4.08333 23.1944 3.81944 22.0833 3.625C20.9722 3.43056 19.8333 3.33333 18.6667 3.33333C17.5 3.33333 16.3611 3.43056 15.25 3.625C14.1389 3.81944 13.0556 4.08333 12 4.41667V9.16667C12 9.44444 11.9444 9.69445 11.8333 9.91667C11.7222 10.1389 11.5556 10.3333 11.3333 10.5L6.5 14.1667C6.16667 14.4167 5.79861 14.5278 5.39583 14.5C4.99306 14.4722 4.63889 14.3056 4.33333 14L0.5 10.25C0.166667 9.91667 0 9.52778 0 9.08333C0 8.63889 0.166667 8.25 0.5 7.91667C2.94444 5.27778 5.76389 3.29861 8.95833 1.97917C12.1528 0.659722 15.3889 0 18.6667 0Z" fill="white"/>
</svg>
